/* XPM */
static const char * logo_xpm[] = {
"128 128 3 1",
" 	c None",
".	c #1ADAC6",
"+	c #FF0045",
"                                                                                                                                ",
"                                                                                                                                ",
"                                                                                                                                ",
"                                                                                                                                ",
"                                                                                                                                ",
"                                                                                                                                ",
"                                                                                                                                ",
"                                                                                                                                ",
"                                                                                                                                ",
"                                                                                                                                ",
"                                                                                                                                ",
"                                                                                                                                ",
"                                                                                                                                ",
"                                                                                                                                ",
"              ....................................................................................................              ",
"              ....................................................................................................              ",
"              ....................................................................................................              ",
"              ....................................................................................................              ",
"              ....................................................................................................              ",
"              ....................................................................................................              ",
"              ....................................................................................................              ",
"              ....................................................................................................              ",
"              ....................................................................................................              ",
"              ....................................................................................................              ",
"              ....................................................................................................              ",
"              ....................................................................................................              ",
"              ....................................................................................................              ",
"              ....................................................................................................              ",
"              ....................................................................................................              ",
"              ....................................................................................................              ",
"              ....................................................................................................              ",
"              ....................................................................................................              ",
"              ....................................................................................................              ",
"              ....................................................................................................              ",
"              ....................................................................................................              ",
"              ....................................................................................................              ",
"              ....................................................................................................              ",
"              ....................................................................................................              ",
"              ....................................................................................................              ",
"              ....................................................................................................              ",
"              .............................................          .............................................              ",
"              ..........................................                ..........................................              ",
"              .......................................                      .......................................              ",
"              ......................................                        ......................................              ",
"              ....................................                            ....................................              ",
"              ...................................                              ...................................              ",
"              ..................................                                ..................................              ",
"              .................................                                  .................................              ",
"              ................................                                    ................................              ",
"              ...............................                                      ...............................              ",
"              ..............................                                        ..............................              ",
"              ..............................                                        ..............................              ",
"              .............................                                          .............................              ",
"              ............................                                            ............................              ",
"              ............................                                            ............................              ",
"              ............................                   ++++++                   ............................              ",
"              ...........................                  ++++++++++                  ...........................              ",
"              ...........................                 ++++++++++++                 ...........................              ",
"              ...........................                ++++++++++++++                ...........................              ",
"              ..........................                ++++++++++++++++                ..........................              ",
"              ..........................                ++++++++++++++++                ..........................              ",
"              ..........................               ++++++++++++++++++               ..........................              ",
"              ..........................               ++++++++++++++++++               ..........................              ",
"              ..........................               ++++++++++++++++++               ..........................              ",
"              ..........................               ++++++++++++++++++               ..........................              ",
"              ..........................               ++++++++++++++++++               ..........................              ",
"              ..........................               ++++++++++++++++++               ..........................              ",
"              ..........................                ++++++++++++++++                ..........................              ",
"              ..........................                ++++++++++++++++                ..........................              ",
"              ...........................                ++++++++++++++                ...........................              ",
"              ...........................                 ++++++++++++                 ...........................              ",
"              ...........................                  ++++++++++                  ...........................              ",
"              ............................                   ++++++                   ............................              ",
"              ............................                                            ............................              ",
"              ............................                                            ............................              ",
"              .............................                                          .............................              ",
"              ..............................                                        ..............................              ",
"              ..............................                                        ..............................              ",
"              ...............................                                      ...............................              ",
"              ................................                                    ................................              ",
"              .................................                                  .................................              ",
"              ..................................                                ..................................              ",
"              ...................................                              ...................................              ",
"              ....................................                            ....................................              ",
"              ......................................                        ......................................              ",
"              .......................................                      .......................................              ",
"              ..........................................                ..........................................              ",
"              .............................................          .............................................              ",
"              ....................................................................................................              ",
"              ....................................................................................................              ",
"              ....................................................................................................              ",
"              ....................................................................................................              ",
"              ....................................................................................................              ",
"              ....................................................................................................              ",
"              ....................................................................................................              ",
"              ....................................................................................................              ",
"              ....................................................................................................              ",
"              ....................................................................................................              ",
"              ....................................................................................................              ",
"              ....................................................................................................              ",
"              ....................................................................................................              ",
"              ....................................................................................................              ",
"              ....................................................................................................              ",
"              ....................................................................................................              ",
"              ....................................................................................................              ",
"              ....................................................................................................              ",
"              ....................................................................................................              ",
"              ....................................................................................................              ",
"              ....................................................................................................              ",
"              ....................................................................................................              ",
"              ....................................................................................................              ",
"              ....................................................................................................              ",
"              ....................................................................................................              ",
"              ....................................................................................................              ",
"                                                                                                                                ",
"                                                                                                                                ",
"                                                                                                                                ",
"                                                                                                                                ",
"                                                                                                                                ",
"                                                                                                                                ",
"                                                                                                                                ",
"                                                                                                                                ",
"                                                                                                                                ",
"                                                                                                                                ",
"                                                                                                                                ",
"                                                                                                                                ",
"                                                                                                                                ",
"                                                                                                                                "};
